<mxfile host="app.diagrams.net" modified="2021-07-03T20:23:22.282Z" agent="5.0 (X11; Linux x86_64) AppleWebKit/537.36 (KHTML, like Gecko) Chrome/91.0.4472.114 Safari/537.36" etag="KkTZCHpFhblHbz0o9SlG" version="14.8.4" type="github">
  <diagram id="YciCKxVZb3v6-NB0ugSa" name="Page-1">
    <mxGraphModel dx="669" dy="453" grid="1" gridSize="10" guides="1" tooltips="1" connect="1" arrows="1" fold="1" page="1" pageScale="1" pageWidth="827" pageHeight="1169" math="0" shadow="0">
      <root>
        <mxCell id="0" />
        <mxCell id="1" parent="0" />
        <mxCell id="FQ3hhbGJM4jg0ycYMV95-53" style="edgeStyle=orthogonalEdgeStyle;rounded=0;orthogonalLoop=1;jettySize=auto;html=1;exitX=0;exitY=0.5;exitDx=0;exitDy=0;entryX=0.5;entryY=0;entryDx=0;entryDy=0;" edge="1" parent="1" source="FQ3hhbGJM4jg0ycYMV95-47" target="FQ3hhbGJM4jg0ycYMV95-51">
          <mxGeometry relative="1" as="geometry" />
        </mxCell>
        <mxCell id="FQ3hhbGJM4jg0ycYMV95-54" style="edgeStyle=orthogonalEdgeStyle;rounded=0;orthogonalLoop=1;jettySize=auto;html=1;exitX=0;exitY=1;exitDx=0;exitDy=0;" edge="1" parent="1" source="FQ3hhbGJM4jg0ycYMV95-47" target="FQ3hhbGJM4jg0ycYMV95-49">
          <mxGeometry relative="1" as="geometry" />
        </mxCell>
        <mxCell id="FQ3hhbGJM4jg0ycYMV95-55" style="edgeStyle=orthogonalEdgeStyle;rounded=0;orthogonalLoop=1;jettySize=auto;html=1;exitX=1;exitY=1;exitDx=0;exitDy=0;entryX=0.5;entryY=0;entryDx=0;entryDy=0;" edge="1" parent="1" source="FQ3hhbGJM4jg0ycYMV95-47" target="FQ3hhbGJM4jg0ycYMV95-52">
          <mxGeometry relative="1" as="geometry" />
        </mxCell>
        <mxCell id="FQ3hhbGJM4jg0ycYMV95-56" style="edgeStyle=orthogonalEdgeStyle;rounded=0;orthogonalLoop=1;jettySize=auto;html=1;exitX=1;exitY=0.5;exitDx=0;exitDy=0;entryX=0.5;entryY=0;entryDx=0;entryDy=0;" edge="1" parent="1" source="FQ3hhbGJM4jg0ycYMV95-47" target="FQ3hhbGJM4jg0ycYMV95-50">
          <mxGeometry relative="1" as="geometry" />
        </mxCell>
        <mxCell id="FQ3hhbGJM4jg0ycYMV95-47" value="" style="ellipse;whiteSpace=wrap;html=1;aspect=fixed;" vertex="1" parent="1">
          <mxGeometry x="280" y="80" width="40" height="40" as="geometry" />
        </mxCell>
        <mxCell id="FQ3hhbGJM4jg0ycYMV95-62" style="edgeStyle=orthogonalEdgeStyle;rounded=0;orthogonalLoop=1;jettySize=auto;html=1;exitX=1;exitY=0.5;exitDx=0;exitDy=0;entryX=0;entryY=0.5;entryDx=0;entryDy=0;" edge="1" parent="1" source="FQ3hhbGJM4jg0ycYMV95-49" target="FQ3hhbGJM4jg0ycYMV95-52">
          <mxGeometry relative="1" as="geometry" />
        </mxCell>
        <mxCell id="FQ3hhbGJM4jg0ycYMV95-49" value="" style="ellipse;whiteSpace=wrap;html=1;aspect=fixed;" vertex="1" parent="1">
          <mxGeometry x="240" y="240" width="40" height="40" as="geometry" />
        </mxCell>
        <mxCell id="FQ3hhbGJM4jg0ycYMV95-58" style="edgeStyle=orthogonalEdgeStyle;rounded=0;orthogonalLoop=1;jettySize=auto;html=1;exitX=0.5;exitY=1;exitDx=0;exitDy=0;entryX=1;entryY=0.5;entryDx=0;entryDy=0;" edge="1" parent="1" source="FQ3hhbGJM4jg0ycYMV95-50" target="FQ3hhbGJM4jg0ycYMV95-52">
          <mxGeometry relative="1" as="geometry" />
        </mxCell>
        <mxCell id="FQ3hhbGJM4jg0ycYMV95-61" style="edgeStyle=orthogonalEdgeStyle;rounded=0;orthogonalLoop=1;jettySize=auto;html=1;exitX=0;exitY=1;exitDx=0;exitDy=0;entryX=1;entryY=0;entryDx=0;entryDy=0;" edge="1" parent="1" source="FQ3hhbGJM4jg0ycYMV95-50" target="FQ3hhbGJM4jg0ycYMV95-49">
          <mxGeometry relative="1" as="geometry">
            <Array as="points">
              <mxPoint x="366" y="210" />
              <mxPoint x="274" y="210" />
            </Array>
          </mxGeometry>
        </mxCell>
        <mxCell id="FQ3hhbGJM4jg0ycYMV95-50" value="" style="ellipse;whiteSpace=wrap;html=1;aspect=fixed;" vertex="1" parent="1">
          <mxGeometry x="360" y="140" width="40" height="40" as="geometry" />
        </mxCell>
        <mxCell id="FQ3hhbGJM4jg0ycYMV95-57" style="edgeStyle=orthogonalEdgeStyle;rounded=0;orthogonalLoop=1;jettySize=auto;html=1;exitX=0.5;exitY=1;exitDx=0;exitDy=0;entryX=0;entryY=0.5;entryDx=0;entryDy=0;" edge="1" parent="1" source="FQ3hhbGJM4jg0ycYMV95-51" target="FQ3hhbGJM4jg0ycYMV95-49">
          <mxGeometry relative="1" as="geometry" />
        </mxCell>
        <mxCell id="FQ3hhbGJM4jg0ycYMV95-59" style="edgeStyle=orthogonalEdgeStyle;rounded=0;orthogonalLoop=1;jettySize=auto;html=1;exitX=1;exitY=0.5;exitDx=0;exitDy=0;" edge="1" parent="1" source="FQ3hhbGJM4jg0ycYMV95-51" target="FQ3hhbGJM4jg0ycYMV95-50">
          <mxGeometry relative="1" as="geometry" />
        </mxCell>
        <mxCell id="FQ3hhbGJM4jg0ycYMV95-63" style="edgeStyle=orthogonalEdgeStyle;rounded=0;orthogonalLoop=1;jettySize=auto;html=1;exitX=1;exitY=1;exitDx=0;exitDy=0;entryX=0;entryY=0;entryDx=0;entryDy=0;" edge="1" parent="1" source="FQ3hhbGJM4jg0ycYMV95-51" target="FQ3hhbGJM4jg0ycYMV95-52">
          <mxGeometry relative="1" as="geometry">
            <Array as="points">
              <mxPoint x="234" y="190" />
              <mxPoint x="326" y="190" />
            </Array>
          </mxGeometry>
        </mxCell>
        <mxCell id="FQ3hhbGJM4jg0ycYMV95-51" value="" style="ellipse;whiteSpace=wrap;html=1;aspect=fixed;" vertex="1" parent="1">
          <mxGeometry x="200" y="140" width="40" height="40" as="geometry" />
        </mxCell>
        <mxCell id="FQ3hhbGJM4jg0ycYMV95-52" value="" style="ellipse;whiteSpace=wrap;html=1;aspect=fixed;" vertex="1" parent="1">
          <mxGeometry x="320" y="240" width="40" height="40" as="geometry" />
        </mxCell>
      </root>
    </mxGraphModel>
  </diagram>
</mxfile>
